PathFileType	4	(X/Y/Z)	D:\TRACE\spotREDO_2-26-24\spot_justArm_Motion_3_2-v60.trc
DataRate	CameraRate	NumFrames	NumMarkers	Units	OrigDataRate	OrigDataStartFrame	OrigNumFrames
100.00	100.00	      28	9	mm	100.00	2626	      7000
Frame#	Time	front left toe			Front right toe			aft left toe			aft right toe			Arm			FL body			FR body			AL Body			AR Body			
		X1	Y1	Z1	X2	Y2	Z2	X3	Y3	Z3	X4	Y4	Z4	X5	Y5	Z5	X6	Y6	Z6	X7	Y7	Z7	X8	Y8	Z8	X9	Y9	Z9	

2626	26.250	-162.00160	16.43990	-271.50348	324.68033	18.14965	-236.46992	-197.56602	28.98928	338.67554	288.55157	33.51155	381.25705	-29.24731	677.75562	-808.09320	16.35094	535.15179	-320.40869	171.31290	539.70081	-313.44000	-32.61920	575.26886	560.86444	115.51983	576.03516	569.82043	
2627	26.260	-161.84290	16.72770	-271.29269	324.85605	18.33017	-236.19757	-197.51564	28.41877	338.84705	288.28058	32.81667	381.25494	-29.42871	677.74213	-807.99066	16.83104	535.04541	-320.53201	172.00117	539.57123	-313.37366	-32.26834	575.31860	561.32690	115.38674	575.91943	569.93341	
2628	26.270	-161.80978	17.18641	-271.26947	325.00705	18.57318	-235.94855	-197.28352	28.00066	338.88232	288.59042	32.32084	381.48740	-29.74375	677.75055	-807.93335	17.29879	534.92291	-320.63193	172.55760	539.37823	-313.37698	-32.17941	575.25513	561.21332	115.64584	575.80426	569.88678	
2629	26.280	-161.55534	17.57073	-271.07300	325.13409	19.04501	-235.47476	-197.10156	27.63063	338.90353	288.51700	32.04176	381.52594	-29.12565	677.71301	-806.65082	17.78893	534.86072	-320.65039	172.96243	539.26794	-313.31741	-31.90206	575.23700	561.13745	115.95724	575.68457	569.87354	
2630	26.290	-161.38966	18.01188	-270.94400	325.52023	19.19987	-235.40865	-196.96400	27.50536	339.08350	288.39648	31.74031	381.58078	-30.93803	677.81647	-807.47296	18.16914	534.72278	-320.69138	173.19504	539.12280	-313.34241	-31.41909	575.08783	561.10004	116.26807	575.47723	569.92035	
2631	26.300	-161.37395	18.10349	-270.84607	325.74426	19.74034	-235.09239	-196.70097	27.17634	339.36731	288.77347	31.20709	381.90002	-31.63562	677.72968	-807.22943	18.52959	534.71698	-320.53156	173.40930	539.11298	-313.45462	-30.85682	574.90717	561.14984	116.61131	575.31921	569.87360	
2632	26.310	-161.38054	18.51174	-270.52118	325.71490	19.84437	-235.04007	-196.43823	26.88938	339.54999	288.91135	30.79379	381.84103	-32.25433	677.81622	-807.15814	18.64171	534.69666	-320.40402	173.63985	539.04926	-313.53162	-30.16077	574.79767	561.18713	117.34326	575.12842	569.90289	
2633	26.320	-161.28694	18.73799	-270.37546	325.70874	19.82804	-235.13559	-196.17383	26.45580	339.83344	288.90466	30.08250	381.92798	-33.12454	677.96136	-807.14807	18.68368	534.76764	-320.31906	173.66251	539.08405	-313.61075	-29.51886	574.38129	561.09906	117.79379	575.05609	569.69409	
2634	26.330	-161.24352	19.00925	-270.06262	325.57712	20.29853	-234.93568	-196.06578	26.14001	339.96906	288.94727	29.54130	382.05249	-33.59775	678.13727	-806.98065	18.80152	534.74323	-320.22656	173.63602	539.07935	-313.65155	-28.95384	574.26251	561.20654	118.76580	574.74225	569.65979	
2635	26.340	-161.36038	19.44275	-269.86844	325.46555	21.08968	-234.52008	-196.11256	25.81385	340.28424	289.13776	29.25208	382.16910	-34.19618	678.26556	-806.90491	18.67085	534.84546	-320.13141	173.59015	539.10962	-313.68115	-27.98369	574.23615	561.64801	119.63891	574.41962	569.85449	
2636	26.350	-161.37328	19.76391	-269.66541	325.40781	21.37645	-234.71092	-196.09988	25.52341	340.48392	289.39728	28.88035	382.35474	-34.46299	678.37335	-806.77002	18.60053	534.95880	-319.98477	173.49823	539.22260	-313.69202	-27.52902	574.02979	561.53064	120.40153	574.20752	570.00916	
2637	26.360	-161.40228	20.09463	-269.43170	325.44370	21.79197	-234.57144	-195.89238	25.18501	340.63223	289.19852	28.24292	382.34320	-34.72593	678.63507	-806.71014	18.57187	535.20093	-319.90744	173.44731	539.32214	-313.68515	-26.52430	573.79425	561.82715	121.11559	573.94690	569.99689	
2638	26.370	-161.42931	20.40417	-269.34344	325.52240	21.82801	-234.56075	-195.81535	24.89258	340.64734	289.03027	27.56689	382.50131	-34.81636	678.91626	-806.65582	18.48340	535.44806	-319.76715	173.41956	539.44775	-313.61392	-25.97615	573.51965	561.93890	121.60569	573.66101	570.02454	
2639	26.380	-161.41583	20.76071	-269.21347	325.36942	22.29449	-234.44101	-195.79701	24.61347	340.78058	289.13589	27.14722	382.78012	-34.61922	679.09174	-806.65002	18.46939	535.65039	-319.68417	173.46161	539.58868	-313.51254	-25.29812	573.26233	562.25934	122.41891	573.26178	570.16095	
2640	26.390	-161.18567	21.18692	-268.82364	325.55991	22.29529	-234.28102	-195.69077	24.19273	341.03189	289.45496	26.81082	383.07629	-34.16879	679.24158	-806.70862	18.60665	536.07172	-319.54239	173.44504	539.81250	-313.38901	-24.85241	573.09253	562.49585	122.93851	573.13824	570.44385	
2641	26.400	-161.14128	21.57089	-268.54907	325.69873	23.14518	-233.69305	-195.52197	23.66168	341.28058	289.61472	26.35038	383.18915	-33.72264	679.30322	-806.78119	18.61120	536.39325	-319.43903	173.50923	540.08179	-313.22574	-22.32208	570.76331	565.06512	123.13844	572.91772	570.33453	
2642	26.410	-161.07774	21.97798	-268.28662	325.67957	23.06206	-233.80241	-195.54517	23.17070	341.47339	289.70294	25.84557	383.29227	-32.07261	679.29828	-805.62830	18.96365	536.52954	-319.23413	173.71608	540.53040	-313.18106	-24.32235	572.49530	562.72534	123.42687	572.56000	570.53021	
2643	26.420	-161.08733	22.22497	-268.13623	325.64697	23.54287	-233.48201	-195.61066	22.84572	341.65329	289.51733	25.46358	383.31854	-32.06972	679.38263	-806.21582	19.05773	536.68738	-319.05066	174.06081	540.72784	-312.71600	-24.02819	572.19635	563.12268	123.63495	572.17352	571.00256	
2644	26.430	-161.13771	22.61978	-267.97092	325.57733	23.71461	-233.42355	-195.70229	22.45108	341.82077	289.15756	24.91833	383.47678	-31.79809	679.42859	-806.32397	19.17323	537.01483	-318.88715	174.39420	540.95386	-312.50238	-24.13841	571.88123	563.00269	124.15672	571.87262	571.50525	
2645	26.440	-161.03145	23.09824	-267.75607	325.68036	23.88295	-233.25337	-195.71657	22.13184	341.90894	289.32233	24.37897	383.75806	-31.15145	679.53009	-806.29144	19.41405	537.34863	-318.75864	174.65395	541.16803	-312.40683	-24.12034	571.66388	563.18066	123.52945	571.65826	571.21033	
2646	26.450	-160.97322	23.68525	-267.59616	325.68906	24.17261	-233.02197	-195.75165	21.89288	341.99789	289.42416	23.97984	383.94421	-30.52375	679.64142	-806.28882	19.71721	537.80432	-318.54153	175.02106	541.38483	-312.24460	-24.14582	571.42664	563.40137	123.54932	571.28357	571.52252	
2647	26.460	-160.96301	24.09385	-267.47037	325.62167	24.51057	-232.61212	-195.77368	21.25979	342.16995	289.40994	23.78820	384.13010	-30.17680	679.67426	-806.22736	19.71738	538.31799	-318.81958	175.30594	541.61725	-312.10666	-23.83200	571.22559	563.77814	123.55578	571.04059	571.66522	
2648	26.470	-161.05524	24.47989	-267.23813	325.72986	24.88704	-232.30295	-195.76828	20.87852	342.13089	289.19778	23.21326	384.32819	-29.70554	679.73657	-806.14783	20.60125	538.12634	-318.15909	175.67209	541.65558	-311.53159	-23.75397	571.00360	563.99243	123.56446	570.78729	571.81915	
2649	26.480	-161.17831	24.71128	-267.14160	325.68530	25.20413	-232.04442	-196.09373	20.21783	342.40100	289.05585	22.68706	384.62927	-28.94209	679.67578	-805.84338	20.92343	538.30591	-318.04932	175.89551	542.07050	-311.71979	-23.89875	570.57709	564.16431	123.35130	570.57745	571.98718	
2650	26.490	-161.40041	25.09200	-266.94144	325.44083	25.47983	-231.73230	-196.31306	19.93531	342.43567	289.03201	22.20481	384.82547	-28.80981	679.60321	-805.86395	21.33326	538.54205	-317.82892	176.34456	542.25659	-311.36575	-23.85038	570.34937	564.35822	123.67970	570.01135	572.43030	
2651	26.500	-161.58553	25.43980	-266.75854	325.22867	25.66681	-231.44290	-196.53798	19.73215	342.63144	289.20557	21.83950	385.10550	-28.62918	679.53418	-805.78436	21.53303	538.90234	-317.70822	176.63530	542.43402	-311.07370	-23.96504	570.27301	564.51685	123.72740	569.73260	572.74530	
2652	26.510	-161.75410	26.06185	-266.56094	325.28265	25.94415	-231.26793	-196.63391	19.28841	342.90057	288.94443	21.38184	385.20441	-28.59852	679.55005	-805.72949	21.83001	539.36859	-317.64468	176.82544	542.61554	-310.94229	-23.93338	570.07233	564.73041	123.80233	569.44580	572.91455	
2653	26.520	-161.77634	26.52637	-266.36337	325.24249	26.29936	-231.16615	-196.70683	18.71188	343.25223	288.98868	20.95341	385.40314	-28.65814	679.56189	-805.57379	21.94056	539.65771	-317.48386	177.03690	542.83691	-310.79468	-23.85462	569.81744	564.97620	123.83998	569.20679	573.02649	
